<svg width="16" height="14" viewBox="0 0 16 14" fill="none" xmlns="http://www.w3.org/2000/svg">
<path d="M3.9987 6.33463V9.0013M11.9987 5.0013V7.66797M11.332 1.66797C12.9645 1.66797 13.8475 1.91781 14.2868 2.1116C14.3453 2.1374 14.3745 2.15031 14.459 2.23088C14.5096 2.27918 14.602 2.4209 14.6257 2.48669C14.6654 2.59646 14.6654 2.65646 14.6654 2.77646V9.94206C14.6654 10.5479 14.6654 10.8508 14.5745 11.0065C14.4821 11.1649 14.393 11.2386 14.22 11.2994C14.0499 11.3593 13.7067 11.2933 13.0201 11.1614C12.5396 11.0691 11.9697 11.0013 11.332 11.0013C9.33203 11.0013 7.33203 12.3346 4.66536 12.3346C3.03289 12.3346 2.14994 12.0848 1.71062 11.891C1.65211 11.8652 1.62286 11.8523 1.53843 11.7717C1.48782 11.7234 1.39544 11.5817 1.37168 11.5159C1.33203 11.4061 1.33203 11.3461 1.33203 11.2261L1.33203 4.06054C1.33203 3.45469 1.33203 3.15177 1.42288 2.99606C1.5153 2.83768 1.60443 2.76405 1.7774 2.70318C1.94746 2.64334 2.29072 2.70929 2.97725 2.8412C3.45778 2.93353 4.02768 3.0013 4.66536 3.0013C6.66536 3.0013 8.66536 1.66797 11.332 1.66797ZM9.66536 7.0013C9.66536 7.92178 8.91917 8.66797 7.9987 8.66797C7.07822 8.66797 6.33203 7.92178 6.33203 7.0013C6.33203 6.08083 7.07822 5.33463 7.9987 5.33463C8.91917 5.33463 9.66536 6.08083 9.66536 7.0013Z" stroke="#667085" stroke-width="1.67" stroke-linecap="round" stroke-linejoin="round"/>
</svg>
