<svg width="16" height="16" viewBox="0 0 16 16" fill="none" xmlns="http://www.w3.org/2000/svg">
<path d="M6.66536 5.33464V4.66797M6.66536 8.33464V7.66797M6.66536 11.3346V10.668M3.46536 2.66797H12.532C13.2788 2.66797 13.6521 2.66797 13.9374 2.81329C14.1882 2.94112 14.3922 3.1451 14.52 3.39598C14.6654 3.6812 14.6654 4.05457 14.6654 4.8013V5.66797C13.3767 5.66797 12.332 6.71264 12.332 8.0013C12.332 9.28997 13.3767 10.3346 14.6654 10.3346V11.2013C14.6654 11.948 14.6654 12.3214 14.52 12.6066C14.3922 12.8575 14.1882 13.0615 13.9374 13.1893C13.6521 13.3346 13.2788 13.3346 12.532 13.3346H3.46536C2.71863 13.3346 2.34526 13.3346 2.06004 13.1893C1.80916 13.0615 1.60519 12.8575 1.47736 12.6066C1.33203 12.3214 1.33203 11.948 1.33203 11.2013V10.3346C2.6207 10.3346 3.66536 9.28997 3.66536 8.0013C3.66536 6.71264 2.6207 5.66797 1.33203 5.66797V4.8013C1.33203 4.05457 1.33203 3.6812 1.47736 3.39598C1.60519 3.1451 1.80916 2.94112 2.06004 2.81329C2.34526 2.66797 2.71863 2.66797 3.46536 2.66797Z" stroke="#667085" stroke-width="1.67" stroke-linecap="round" stroke-linejoin="round"/>
</svg>
