<svg width="16" height="14" viewBox="0 0 16 14" fill="none" xmlns="http://www.w3.org/2000/svg">
<path d="M5.33203 4.33464V3.66797M5.33203 7.33464V6.66797M5.33203 10.3346V9.66797M4.53203 12.3346H11.4654C12.5855 12.3346 13.1455 12.3346 13.5733 12.1166C13.9497 11.9249 14.2556 11.6189 14.4474 11.2426C14.6654 10.8148 14.6654 10.2547 14.6654 9.13463V4.86797C14.6654 3.74786 14.6654 3.18781 14.4474 2.75999C14.2556 2.38366 13.9497 2.0777 13.5733 1.88596C13.1455 1.66797 12.5855 1.66797 11.4654 1.66797H4.53203C3.41193 1.66797 2.85187 1.66797 2.42405 1.88596C2.04773 2.0777 1.74176 2.38366 1.55002 2.75999C1.33203 3.18781 1.33203 3.74786 1.33203 4.86797V9.13463C1.33203 10.2547 1.33203 10.8148 1.55002 11.2426C1.74176 11.6189 2.04773 11.9249 2.42405 12.1166C2.85187 12.3346 3.41193 12.3346 4.53203 12.3346Z" stroke="#667085" stroke-width="1.67" stroke-linecap="round" stroke-linejoin="round"/>
</svg>
