<svg width="16" height="16" viewBox="0 0 16 16" fill="none" xmlns="http://www.w3.org/2000/svg">
<g clip-path="url(#clip0_8248_9346)">
<path d="M1.91744 12.0766C1.94807 11.801 1.96339 11.6632 2.00509 11.5343C2.04209 11.42 2.09437 11.3113 2.16051 11.211C2.23505 11.0979 2.33311 10.9999 2.52923 10.8037L11.3334 1.99955C12.0698 1.26317 13.2637 1.26317 14.0001 1.99955C14.7365 2.73593 14.7365 3.92984 14.0001 4.66622L5.1959 13.4704C4.99978 13.6665 4.90172 13.7646 4.78867 13.8391C4.68838 13.9053 4.57961 13.9575 4.46531 13.9945C4.33648 14.0362 4.19865 14.0516 3.92299 14.0822L1.66675 14.3329L1.91744 12.0766Z" stroke="#475467" stroke-width="2" stroke-linecap="round" stroke-linejoin="round"/>
</g>
<defs>
<clipPath id="clip0_8248_9346">
<rect width="16" height="16" fill="white"/>
</clipPath>
</defs>
</svg>
